<svg width="80" height="70" viewBox="0 0 80 70" fill="none" xmlns="http://www.w3.org/2000/svg">
<path d="M31.4118 41.8235V34.7647L38.4706 34.7647M40.2353 34.7647L47.2941 34.7647V41.8235M31.4118 43.5882L31.4118 50.6471L36.5 50.6471M38.4706 50.6471H36.5M47.2941 43.5882L47.2941 50.6471L42 50.6471M40.2353 50.6471H42M36.5 50.6471V57M42 50.6471V57" stroke="#F1F2DA"/>
<path d="M39.3529 33.8823V30.3529" stroke="#F1F2DA"/>
<path d="M38.4706 28.8824L31.4118 28.8824L31.4118 19.4706L31.4118 13L34.3529 13L47.2941 13L47.2941 19.4706L47.2941 28.8824L40.2353 28.8824" stroke="#F1F2DA"/>
<path d="M48.4706 42.7059L49.9412 42.7059" stroke="#F1F2DA"/>
<path d="M51.1176 41.8235L51.1176 34.7647L60.5294 34.7647L67 34.7647L67 37.7059L67 50.6471L60.5294 50.6471L51.1176 50.6471L51.1176 43.5882" stroke="#F1F2DA"/>
<path d="M30.5294 42.7059L29.0588 42.7059" stroke="#F1F2DA"/>
<path d="M27.8824 41.8235L27.8824 34.7647L18.4706 34.7647L12 34.7647L12 37.7059L12 50.6471L18.4706 50.6471L27.8824 50.6471L27.8824 43.5882" stroke="#F1F2DA"/>
<path d="M41.9335 25C41.5349 25 41.2099 24.896 40.9585 24.688C40.7159 24.48 40.5772 24.1897 40.5425 23.817H40.4775C40.3649 24.2503 40.1265 24.584 39.7625 24.818C39.3985 25.0433 38.9565 25.156 38.4365 25.156C37.7779 25.156 37.2535 24.9783 36.8635 24.623C36.4735 24.2677 36.2785 23.778 36.2785 23.154C36.2785 21.776 37.2839 21.087 39.2945 21.087H40.3735V20.749C40.3735 20.3417 40.2782 20.0383 40.0875 19.839C39.8969 19.6397 39.5849 19.54 39.1515 19.54C38.7702 19.54 38.4495 19.6137 38.1895 19.761C37.9382 19.9083 37.7129 20.1163 37.5135 20.385L36.4605 19.449C36.6945 19.0503 37.0585 18.734 37.5525 18.5C38.0465 18.2573 38.6532 18.136 39.3725 18.136C40.2999 18.136 41.0192 18.3527 41.5305 18.786C42.0419 19.2107 42.2975 19.839 42.2975 20.671V23.167C42.2975 23.2883 42.3409 23.3923 42.4275 23.479C42.5142 23.5657 42.6182 23.609 42.7395 23.609H43.0385V25H41.9335ZM39.1645 23.895C39.5199 23.895 39.8102 23.8127 40.0355 23.648C40.2609 23.4747 40.3735 23.2363 40.3735 22.933V22.127H39.3465C38.9652 22.127 38.6705 22.1963 38.4625 22.335C38.2632 22.465 38.1635 22.66 38.1635 22.92V23.18C38.1635 23.414 38.2502 23.5917 38.4235 23.713C38.6055 23.8343 38.8525 23.895 39.1645 23.895Z" fill="#F1F2DA"/>
<path d="M19.7755 47.156C18.7182 47.156 17.8862 46.844 17.2795 46.22C16.6815 45.596 16.3825 44.738 16.3825 43.646C16.3825 42.5627 16.6815 41.709 17.2795 41.085C17.8862 40.4523 18.7139 40.136 19.7625 40.136C21.1059 40.136 22.0375 40.682 22.5575 41.774L21.0755 42.58C20.9455 42.294 20.7765 42.073 20.5685 41.917C20.3692 41.7523 20.1005 41.67 19.7625 41.67C19.3292 41.67 18.9912 41.8 18.7485 42.06C18.5059 42.3113 18.3845 42.658 18.3845 43.1V44.192C18.3845 44.6427 18.5059 44.9937 18.7485 45.245C18.9912 45.4963 19.3379 45.622 19.7885 45.622C20.1352 45.622 20.4169 45.544 20.6335 45.388C20.8589 45.2233 21.0495 44.9893 21.2055 44.686L22.6615 45.518C22.4102 46.0293 22.0462 46.4323 21.5695 46.727C21.0929 47.013 20.4949 47.156 19.7755 47.156Z" fill="#F1F2DA"/>
<path d="M56.3695 37.38H58.2935V41.514H58.3845C58.5665 41.0807 58.8135 40.7427 59.1255 40.5C59.4462 40.2573 59.8622 40.136 60.3735 40.136C61.1449 40.136 61.7559 40.4307 62.2065 41.02C62.6659 41.6007 62.8955 42.476 62.8955 43.646C62.8955 44.816 62.6659 45.6957 62.2065 46.285C61.7559 46.8657 61.1449 47.156 60.3735 47.156C59.8622 47.156 59.4462 47.0347 59.1255 46.792C58.8135 46.5493 58.5665 46.2113 58.3845 45.778H58.2935V47H56.3695V37.38ZM59.5415 45.661C59.9662 45.661 60.2955 45.531 60.5295 45.271C60.7722 45.0023 60.8935 44.634 60.8935 44.166V43.126C60.8935 42.658 60.7722 42.294 60.5295 42.034C60.2955 41.7653 59.9662 41.631 59.5415 41.631C59.1775 41.631 58.8785 41.7177 58.6445 41.891C58.4105 42.0643 58.2935 42.32 58.2935 42.658V44.634C58.2935 44.972 58.4105 45.2277 58.6445 45.401C58.8785 45.5743 59.1775 45.661 59.5415 45.661Z" fill="#F1F2DA"/>
</svg>
